<?xml version="1.0" encoding="utf-8"?>
<!-- Generator: Adobe Illustrator 24.0.1, SVG Export Plug-In . SVG Version: 6.00 Build 0)  -->
<svg version="1.1" id="Layer_1" xmlns="http://www.w3.org/2000/svg" xmlns:xlink="http://www.w3.org/1999/xlink" x="0px" y="0px"
	 viewBox="0 0 44.17 40.92" style="enable-background:new 0 0 44.17 40.92;" xml:space="preserve">
<style type="text/css">
	.st0{fill:#FFFFFF;}
</style>
<g>
	<g>
		<path class="st0" d="M43.92,30.29h-1.09c-0.09-0.59-0.24-1.16-0.45-1.7l0.95-0.55c0.12-0.07,0.16-0.22,0.09-0.35l-0.99-1.71
			c-0.07-0.12-0.23-0.16-0.35-0.09l-0.94,0.54c-0.37-0.46-0.79-0.88-1.25-1.25l0.54-0.94c0.07-0.12,0.03-0.28-0.09-0.35l-1.71-0.99
			c-0.12-0.07-0.28-0.03-0.35,0.09l-0.55,0.95c-0.54-0.21-1.11-0.36-1.7-0.45v-1.09c0-0.14-0.11-0.25-0.25-0.25h-1.98
			c-0.14,0-0.25,0.11-0.25,0.25v1.09c-0.59,0.09-1.16,0.24-1.7,0.45l-0.55-0.95c-0.07-0.12-0.22-0.16-0.35-0.09l-1.71,0.99
			c-0.12,0.07-0.16,0.22-0.09,0.35l0.54,0.94c-0.46,0.37-0.88,0.79-1.25,1.25l-0.94-0.54c-0.12-0.07-0.28-0.03-0.35,0.09l-0.99,1.71
			c-0.07,0.12-0.03,0.28,0.09,0.35l0.95,0.55c-0.21,0.54-0.36,1.11-0.45,1.7h-1.09c-0.14,0-0.25,0.11-0.25,0.25v1.98
			c0,0.14,0.11,0.25,0.25,0.25h1.09c0.09,0.59,0.24,1.16,0.45,1.7l-0.95,0.55c-0.12,0.07-0.16,0.22-0.09,0.35l0.99,1.71
			c0.07,0.12,0.22,0.16,0.35,0.09l0.94-0.54c0.37,0.46,0.79,0.88,1.25,1.25l-0.54,0.94c-0.07,0.12-0.03,0.28,0.09,0.35l1.71,0.99
			c0.12,0.07,0.28,0.03,0.35-0.09l0.55-0.95c0.54,0.21,1.11,0.36,1.7,0.45v1.09c0,0.14,0.11,0.25,0.25,0.25h1.98
			c0.14,0,0.25-0.11,0.25-0.25v-1.09c0.59-0.09,1.16-0.24,1.7-0.45l0.55,0.95c0.07,0.12,0.22,0.16,0.35,0.09l1.71-0.99
			c0.12-0.07,0.16-0.22,0.09-0.35l-0.54-0.94c0.46-0.37,0.88-0.79,1.25-1.25l0.94,0.54c0.12,0.07,0.28,0.03,0.35-0.09l0.99-1.71
			c0.07-0.12,0.03-0.28-0.09-0.35l-0.95-0.55c0.21-0.54,0.36-1.11,0.45-1.7h1.09c0.14,0,0.25-0.11,0.25-0.25v-1.98
			C44.17,30.4,44.06,30.29,43.92,30.29z M34.78,36.47c-2.73,0-4.94-2.21-4.94-4.94c0-2.73,2.21-4.94,4.94-4.94s4.94,2.21,4.94,4.94
			C39.72,34.26,37.51,36.47,34.78,36.47z"/>
		<path class="st0" d="M30.37,13.35h-1.79c-0.15-0.97-0.4-1.9-0.74-2.79l1.55-0.89c0.2-0.11,0.27-0.37,0.15-0.57l-1.62-2.81
			c-0.11-0.2-0.37-0.27-0.57-0.15L25.8,7.03c-0.61-0.75-1.29-1.44-2.04-2.04l0.89-1.55c0.11-0.2,0.05-0.45-0.15-0.57l-2.81-1.62
			c-0.2-0.11-0.45-0.05-0.57,0.15l-0.89,1.55c-0.89-0.35-1.82-0.59-2.79-0.74V0.42c0-0.23-0.19-0.42-0.42-0.42h-3.24
			c-0.23,0-0.42,0.19-0.42,0.42v1.79c-0.97,0.15-1.9,0.4-2.79,0.74L9.67,1.4C9.55,1.2,9.3,1.14,9.1,1.25L6.29,2.87
			c-0.2,0.11-0.27,0.37-0.15,0.57l0.89,1.55C6.28,5.59,5.59,6.28,4.99,7.03L3.44,6.14c-0.2-0.11-0.45-0.05-0.57,0.15L1.25,9.1
			C1.14,9.3,1.2,9.55,1.4,9.67l1.55,0.89c-0.35,0.89-0.59,1.82-0.74,2.79H0.42C0.19,13.35,0,13.54,0,13.77v3.24
			c0,0.23,0.19,0.42,0.42,0.42h1.79c0.15,0.97,0.4,1.9,0.74,2.79L1.4,21.12c-0.2,0.11-0.27,0.37-0.15,0.57l1.62,2.81
			c0.11,0.2,0.37,0.27,0.57,0.15l1.55-0.89c0.61,0.75,1.29,1.44,2.05,2.04l-0.89,1.55c-0.11,0.2-0.05,0.45,0.15,0.57l2.81,1.62
			c0.2,0.11,0.45,0.05,0.57-0.15l0.89-1.55c0.89,0.35,1.82,0.59,2.79,0.74v1.79c0,0.23,0.19,0.42,0.42,0.42h3.24
			c0.23,0,0.42-0.19,0.42-0.42v-1.79c0.97-0.15,1.9-0.4,2.79-0.74l0.89,1.55c0.11,0.2,0.37,0.27,0.57,0.15l2.81-1.62
			c0.2-0.11,0.27-0.37,0.15-0.57l-0.89-1.55c0.75-0.61,1.44-1.29,2.04-2.04l1.55,0.89c0.2,0.11,0.45,0.05,0.57-0.15l1.62-2.81
			c0.11-0.2,0.05-0.45-0.15-0.57l-1.55-0.89c0.35-0.89,0.59-1.82,0.74-2.79h1.79c0.23,0,0.42-0.19,0.42-0.42v-3.24
			C30.78,13.54,30.6,13.35,30.37,13.35z M15.39,23.49c-4.47,0-8.1-3.63-8.1-8.1c0-4.47,3.63-8.1,8.1-8.1c4.47,0,8.1,3.63,8.1,8.1
			C23.49,19.87,19.87,23.49,15.39,23.49z"/>
	</g>
	<path class="st0" d="M14.04,15.39c0-0.75,0.61-1.35,1.35-1.35c0.75,0,1.35,0.61,1.35,1.35s-0.61,1.35-1.35,1.35
		C14.65,16.74,14.04,16.14,14.04,15.39z"/>
	<path class="st0" d="M34.03,31.53c0-0.41,0.33-0.75,0.75-0.75s0.75,0.33,0.75,0.75c0,0.41-0.33,0.75-0.75,0.75
		S34.03,31.94,34.03,31.53z"/>
</g>
</svg>
