<?xml version="1.0" encoding="utf-8"?>
<!-- Generator: Adobe Illustrator 24.0.1, SVG Export Plug-In . SVG Version: 6.00 Build 0)  -->
<svg version="1.1" id="Layer_1" xmlns="http://www.w3.org/2000/svg" xmlns:xlink="http://www.w3.org/1999/xlink" x="0px" y="0px"
	 viewBox="0 0 132.25 132.86" style="enable-background:new 0 0 132.25 132.86;" xml:space="preserve">
<style type="text/css">
	.st0{fill-rule:evenodd;clip-rule:evenodd;fill:#FDFDFD;}
</style>
<path class="st0" d="M99.18,28.07c-5.61,0-9.35-3.74-9.35-8.72V9.36c0-5,3.74-9.36,9.35-9.36c5,0,8.74,4.36,8.74,9.36v9.98
	C107.92,24.33,104.18,28.07,99.18,28.07L99.18,28.07z M122.88,132.86H9.36H0V16.21h18.71v4.37c0,8.1,6.24,14.35,14.35,14.35
	c7.49,0,14.35-6.24,14.35-14.35v-4.37h37.43v4.37c0,8.1,6.24,14.35,14.34,14.35c7.48,0,13.73-6.24,13.73-14.35v-4.37h18.71
	l0.63,116.64H122.88z M122.88,48.65H9.36v74.86h113.52V48.65z M33.06,28.07c-5.61,0-9.36-3.74-9.36-8.72V9.36
	c0-5,3.75-9.36,9.36-9.36c5,0,9.36,4.36,9.36,9.36v9.98C42.42,24.33,38.06,28.07,33.06,28.07L33.06,28.07z M47.41,71.73V58.64h14.97
	v13.09H47.41z M71.11,71.73V58.64h14.97v13.09H71.11z M93.57,71.73V58.64h14.97v13.09H93.57z M47.41,93.56V80.47h14.97v13.09H47.41z
	 M71.11,93.56V80.47h14.97v13.09H71.11z M93.57,93.56V80.47h14.97v13.09H93.57z M47.41,115.4V102.3h14.97v13.09H47.41z M23.7,93.56
	V80.47h14.98v13.09H23.7z M23.7,115.4V102.3h14.98v13.09H23.7z M71.11,115.4V102.3h14.97v13.09H71.11z M93.57,115.4V102.3h14.97
	v13.09H93.57z"/>
</svg>
